<?xml version="1.0" encoding="UTF-8"?>
<svg width="1024px" height="1024px" viewBox="0 0 1024 1024" version="1.1" xmlns="http://www.w3.org/2000/svg" xmlns:xlink="http://www.w3.org/1999/xlink">
    <title>nrp-logo-nobg</title>
    <g id="nrp-logo-nobg" stroke="none" fill="none" fill-rule="evenodd">
        <g id="nrp-c1-teal" stroke-width="1">
            <path d="M512,6.39488462e-14 C794.666667,6.39488462e-14 1024,229.333333 1024,512 C1024,794.666667 794.666667,1024 512,1024 C229.333333,1024 6.39488462e-14,794.666667 6.39488462e-14,512 C6.39488462e-14,229.333333 229.333333,6.39488462e-14 512,6.39488462e-14 Z M512,128 C726.4,128 896,297.6 896,512 C896,726.4 726.4,896 512,896 C297.6,896 128,726.4 128,512 C128,297.6 297.6,128 512,128 Z" id="Shape" fill="#0D9488"></path>
            <path d="M512,128 C726.4,128 896,297.6 896,512 C896,726.4 726.4,896 512,896 C297.6,896 128,726.4 128,512 C128,297.6 297.6,128 512,128 Z M512,256 C653.44,256 768,370.56 768,512 C768,653.44 653.44,768 512,768 C370.56,768 256,653.44 256,512 C256,370.56 370.56,256 512,256 Z" id="Shape" fill="#0F766E"></path>
            <path d="M512,256 C653.44,256 768,370.56 768,512 C768,653.44 653.44,768 512,768 C370.56,768 256,653.44 256,512 C256,370.56 370.56,256 512,256 Z" id="Shape" fill="#134E4A"></path>
        </g>
        <path d="M424.410953,396.709348 C424.793598,375.466507 442.324932,358.55609 463.567746,358.938736 L627.292179,358.938011 C647.994937,359.307962 664.68989,376.002937 665.063468,396.709348 L665.063106,560.432535 C665.445026,581.674651 648.536081,599.207457 627.292179,599.589015 C606.048276,599.970573 588.516943,583.060156 588.135023,561.81804 L589.765709,488.647771 L424.410953,653.993668 C409.387671,669.016969 385.032914,669.020233 370.006368,653.993668 C354.983448,638.97073 354.983086,614.612316 370.006368,599.589015 L535.373093,434.231149 L462.181517,435.86619 C440.938703,435.483544 424.028307,417.952189 424.410953,396.709348 Z" id="Path" fill="#4DB2AA"></path>
    </g>
</svg>